<?xml version="1.0" encoding="UTF-8" standalone="no"?>
<!-- Created with Inkscape (http://www.inkscape.org/) -->

<svg
   xmlns:dc="http://purl.org/dc/elements/1.1/"
   xmlns:cc="http://creativecommons.org/ns#"
   xmlns:rdf="http://www.w3.org/1999/02/22-rdf-syntax-ns#"
   xmlns:svg="http://www.w3.org/2000/svg"
   xmlns="http://www.w3.org/2000/svg"
   xmlns:sodipodi="http://sodipodi.sourceforge.net/DTD/sodipodi-0.dtd"
   xmlns:inkscape="http://www.inkscape.org/namespaces/inkscape"
   width="364.0611"
   height="215.37984"
   id="svg2"
   version="1.1"
   inkscape:version="0.48.4 r9939"
   sodipodi:docname="e_decouverte_eye.svg">
  <defs
     id="defs4" />
  <sodipodi:namedview
     id="base"
     pagecolor="#ffffff"
     bordercolor="#666666"
     borderopacity="1.0"
     inkscape:pageopacity="0.0"
     inkscape:pageshadow="2"
     inkscape:zoom="0.98994949"
     inkscape:cx="196.38132"
     inkscape:cy="137.63006"
     inkscape:document-units="px"
     inkscape:current-layer="layer1"
     showgrid="false"
     fit-margin-top="0"
     fit-margin-left="0"
     fit-margin-right="0"
     fit-margin-bottom="0"
     inkscape:window-width="1301"
     inkscape:window-height="744"
     inkscape:window-x="65"
     inkscape:window-y="24"
     inkscape:window-maximized="1" />
  <metadata
     id="metadata7">
    <rdf:RDF>
      <cc:Work
         rdf:about="">
        <dc:format>image/svg+xml</dc:format>
        <dc:type
           rdf:resource="http://purl.org/dc/dcmitype/StillImage" />
        <dc:title />
      </cc:Work>
    </rdf:RDF>
  </metadata>
  <g
     inkscape:label="Calque 1"
     inkscape:groupmode="layer"
     id="layer1"
     transform="translate(-144.3656,-414.20631)">
    <g
       id="Captions"
       transform="matrix(3.7054565,0,0,4.3731945,141.23912,300.22993)" />
    <g
       id="g3757">
      <path
         inkscape:connector-curvature="0"
         id="path8"
         d="m 325.81532,421.16415 c -103.14509,0.0131 -173.45983,99.64323 -173.45983,99.64323 64.66022,76.30787 124.88129,101.73363 176.46125,101.73363 103.14509,0 171.68491,-101.73363 171.68491,-101.73363 C 437.1754,446.06512 377.39527,421.15977 325.81532,421.16415 z m 3.00142,183.72664 c -52.20618,0 -104.43829,-28.452 -155.42908,-84.63443 21.69545,-25.13712 78.54456,-81.43325 152.44248,-81.442 h 0.004 c 52.19876,0 103.90841,27.84413 153.86537,82.81518 -21.03587,25.47824 -76.90304,83.26125 -150.88248,83.26125 z"
         style="fill:#ffffff;fill-opacity:1;stroke:#ffffff;stroke-width:12.882;stroke-miterlimit:4;stroke-opacity:1;stroke-dasharray:none" />
      <path
         style="fill:#ffffff;fill-opacity:1;stroke:#ffffff;stroke-width:0;stroke-linecap:square;stroke-linejoin:round;stroke-miterlimit:4;stroke-opacity:1;stroke-dasharray:none"
         d="m 326.5625,460.9375 c -33.59926,0 -60.84375,27.24449 -60.84375,60.84375 0,33.59926 27.24449,60.8125 60.84375,60.8125 33.59926,0 60.8125,-27.21324 60.8125,-60.8125 0,-33.59926 -27.21324,-60.84375 -60.8125,-60.84375 z m -15.4375,24.71875 c 11.71573,0 21.21875,9.50302 21.21875,21.21875 0,11.71573 -9.50302,21.21875 -21.21875,21.21875 -11.71573,0 -21.21875,-9.50302 -21.21875,-21.21875 0,-11.71573 9.50302,-21.21875 21.21875,-21.21875 z"
         id="path3067"
         inkscape:connector-curvature="0" />
    </g>
  </g>
</svg>
